<svg width="265" height="303" viewBox="0 0 265 303" fill="none" xmlns="http://www.w3.org/2000/svg">
<path d="M220.833 50.5H44.1666C32.0208 50.5 22.1937 61.8625 22.1937 75.75L22.0833 227.25C22.0833 241.138 32.0208 252.5 44.1666 252.5H220.833C232.979 252.5 242.917 241.138 242.917 227.25V75.75C242.917 61.8625 232.979 50.5 220.833 50.5ZM216.417 104.156L138.352 159.959C134.819 162.484 130.181 162.484 126.648 159.959L48.5833 104.156C47.4761 103.446 46.5065 102.485 45.7333 101.334C44.96 100.182 44.3991 98.8636 44.0846 97.4571C43.7701 96.0505 43.7084 94.5857 43.9033 93.1511C44.0982 91.7166 44.5457 90.3421 45.2187 89.1111C45.8916 87.88 46.776 86.8178 47.8184 85.9888C48.8607 85.1599 50.0393 84.5813 51.2829 84.2883C52.5264 83.9952 53.8091 83.9937 55.0532 84.2838C56.2972 84.574 57.4769 85.1497 58.5208 85.9763L132.5 138.875L206.479 85.9763C207.523 85.1497 208.703 84.574 209.947 84.2838C211.191 83.9937 212.473 83.9952 213.717 84.2883C214.961 84.5813 216.139 85.1599 217.181 85.9888C218.224 86.8178 219.108 87.88 219.781 89.1111C220.454 90.3421 220.902 91.7166 221.097 93.1511C221.291 94.5857 221.23 96.0505 220.915 97.4571C220.601 98.8636 220.04 100.182 219.267 101.334C218.493 102.485 217.524 103.446 216.417 104.156Z" fill="#E6F3D8"/>
</svg>
