<svg width="233" height="233" viewBox="0 0 233 233" fill="none" xmlns="http://www.w3.org/2000/svg">
<path d="M211.156 5.46105H21.8438C17.5484 5.41733 13.4111 7.07938 10.3397 10.0825C7.26834 13.0856 5.51375 17.1845 5.46094 21.4798V211.557C5.5233 215.846 7.28209 219.935 10.3524 222.931C13.4228 225.926 17.5546 227.583 21.8438 227.539H211.156C215.452 227.573 219.586 225.906 222.656 222.901C225.726 219.896 227.481 215.798 227.539 211.502V21.4252C227.462 17.1425 225.699 13.0632 222.631 10.0738C219.563 7.08448 215.439 5.42678 211.156 5.46105Z" fill="#E6F3D8"/>
<path d="M38.3359 88.7039H71.3017V194.773H38.3359V88.7039ZM54.8279 35.9148C58.6089 35.9148 62.305 37.0362 65.4485 39.1372C68.5921 41.2382 71.0419 44.2244 72.488 47.7179C73.9341 51.2115 74.3115 55.0555 73.5726 58.7636C72.8336 62.4717 71.0114 65.8773 68.3366 68.5496C65.6617 71.222 62.2543 73.0409 58.5455 73.7763C54.8367 74.5118 50.9931 74.1306 47.5009 72.6812C44.0088 71.2318 41.0249 68.7792 38.9269 65.6336C36.8289 62.488 35.711 58.7909 35.7146 55.0099C35.7194 49.9439 37.7353 45.087 41.3192 41.5065C44.9031 37.926 49.7619 35.9148 54.8279 35.9148ZM91.9805 88.7039H123.581V103.266H124.018C128.423 94.9293 139.163 86.1372 155.2 86.1372C188.584 86.0644 194.774 108.036 194.774 136.523V194.773H161.808V143.168C161.808 130.88 161.589 115.062 144.679 115.062C127.768 115.062 124.892 128.459 124.892 142.367V194.773H91.9805V88.7039Z" fill="#53A27D"/>
</svg>
