<svg width="264" height="264" viewBox="0 0 264 264" fill="none" xmlns="http://www.w3.org/2000/svg">
<path d="M132 22C117.555 22 103.251 24.8452 89.9048 30.3733C76.559 35.9013 64.4327 44.0038 54.2183 54.2183C33.5893 74.8473 22 102.826 22 132C22 180.62 53.57 221.87 97.24 236.5C102.74 237.38 104.5 233.97 104.5 231V212.41C74.03 219.01 67.54 197.67 67.54 197.67C62.48 184.91 55.33 181.5 55.33 181.5C45.32 174.68 56.1 174.9 56.1 174.9C67.1 175.67 72.93 186.23 72.93 186.23C82.5 202.95 98.67 198 104.94 195.36C105.93 188.21 108.79 183.37 111.87 180.62C87.45 177.87 61.82 168.41 61.82 126.5C61.82 114.29 66 104.5 73.15 96.69C72.05 93.94 68.2 82.5 74.25 67.65C74.25 67.65 83.49 64.68 104.5 78.87C113.19 76.45 122.65 75.24 132 75.24C141.35 75.24 150.81 76.45 159.5 78.87C180.51 64.68 189.75 67.65 189.75 67.65C195.8 82.5 191.95 93.94 190.85 96.69C198 104.5 202.18 114.29 202.18 126.5C202.18 168.52 176.44 177.76 151.91 180.51C155.87 183.92 159.5 190.63 159.5 200.86V231C159.5 233.97 161.26 237.49 166.87 236.5C210.54 221.76 242 180.62 242 132C242 117.555 239.155 103.251 233.627 89.9048C228.099 76.559 219.996 64.4327 209.782 54.2183C199.567 44.0038 187.441 35.9013 174.095 30.3733C160.749 24.8452 146.445 22 132 22Z" fill="#E6F3D8"/>
</svg>
