<svg width="264" height="264" viewBox="0 0 264 264" fill="none" xmlns="http://www.w3.org/2000/svg">
<path d="M72.82 118.69C88.66 149.82 114.18 175.23 145.31 191.18L169.51 166.98C172.48 164.01 176.88 163.02 180.73 164.34C193.05 168.41 206.36 170.61 220 170.61C226.05 170.61 231 175.56 231 181.61V220C231 226.05 226.05 231 220 231C116.71 231 33 147.29 33 44C33 37.95 37.95 33 44 33H82.5C88.55 33 93.5 37.95 93.5 44C93.5 57.75 95.7 70.95 99.77 83.27C100.98 87.12 100.1 91.41 97.02 94.49L72.82 118.69Z" fill="#E6F3D8"/>
</svg>
