<svg width="533" height="533" viewBox="0 0 533 533" fill="none" xmlns="http://www.w3.org/2000/svg">
<path d="M199.875 155.458L244.292 288.708V377.542H288.708V288.708L333.125 155.458H288.708L266.5 222.083L244.292 155.458H199.875ZM111.042 66.625H421.958C433.738 66.625 445.036 71.3046 453.366 79.6343C461.695 87.9641 466.375 99.2616 466.375 111.042V421.958C466.375 433.738 461.695 445.036 453.366 453.366C445.036 461.695 433.738 466.375 421.958 466.375H111.042C99.2616 466.375 87.9641 461.695 79.6343 453.366C71.3046 445.036 66.625 433.738 66.625 421.958V111.042C66.625 99.2616 71.3046 87.9641 79.6343 79.6343C87.9641 71.3046 99.2616 66.625 111.042 66.625Z" fill="#53A27D"/>
</svg>
